<svg width="24" height="24" viewBox="0 0 24 24" fill="none" xmlns="http://www.w3.org/2000/svg">
<path fill-rule="evenodd" clip-rule="evenodd" d="M16.8607 2C16.0544 2 15.2561 2.16396 14.5113 2.4825C13.7665 2.80103 13.0897 3.268 12.5198 3.85651L11.9997 4.39326L11.4796 3.85639C10.3283 2.66811 8.76692 2.00054 7.13881 2.00054C5.51069 2.00054 3.94926 2.66811 2.79801 3.85639C1.64677 5.04467 1 6.65632 1 8.33679C1 10.0173 1.64677 11.6289 2.79801 12.8172L11.479 21.7773C11.7666 22.0742 12.2329 22.0742 12.5205 21.7773L21.2013 12.8173C21.7716 12.229 22.2239 11.5305 22.5325 10.7618C22.8412 9.99298 23 9.16896 23 8.33679C23 7.50463 22.8412 6.68061 22.5325 5.91183C22.2239 5.14305 21.7716 4.44455 21.2013 3.85626C20.6314 3.26781 19.9548 2.801 19.2101 2.4825C18.4652 2.16396 17.6669 2 16.8607 2ZM18.6462 3.88709C19.2123 4.12918 19.7266 4.48402 20.1598 4.93134C20.5931 5.37844 20.9372 5.90954 21.1717 6.49382C21.4063 7.0781 21.527 7.70435 21.527 8.33679C21.527 8.96924 21.4063 9.59549 21.1717 10.1798C20.9372 10.764 20.5933 11.295 20.1599 11.7421L11.9997 20.1647L3.83959 11.7421C2.96458 10.839 2.47301 9.61404 2.47301 8.33679C2.47301 7.05955 2.96458 5.83461 3.83959 4.93146C4.7146 4.02831 5.90136 3.52093 7.13881 3.52093C8.37625 3.52093 9.56302 4.02831 10.438 4.93146L11.479 6.00587C11.7666 6.30274 12.2329 6.30274 12.5205 6.00587L13.5616 4.93134C13.9947 4.48402 14.5091 4.12918 15.0751 3.88709C15.6412 3.64499 16.2479 3.52039 16.8607 3.52039C17.4734 3.52039 18.0801 3.64499 18.6462 3.88709ZM16.4467 12.084C15.6607 13.344 14.4287 14.2956 11.9994 16C9.57062 14.2959 8.33776 13.3459 7.55305 12.0848C6.44769 10.3112 7.11778 8.80812 8.51719 8.21987C8.83002 8.08921 9.16843 8.01546 9.513 8.00287C9.85756 7.99028 10.2015 8.03909 10.5251 8.14651C10.8486 8.25392 11.1454 8.41781 11.3984 8.62879C11.6515 8.83976 11.8557 9.09365 11.9994 9.37588C12.1431 9.09348 12.3473 8.83943 12.6003 8.62831C12.8534 8.41719 13.1503 8.25318 13.4739 8.14568C13.7976 8.03819 14.1417 7.98934 14.4864 8.00194C14.8311 8.01454 15.1696 8.08834 15.4825 8.2191C16.8824 8.80773 17.5525 10.3108 16.4467 12.084Z" fill="#75B3EB"/>
</svg>
