<svg width="24" height="24" viewBox="0 0 24 24" fill="none" xmlns="http://www.w3.org/2000/svg">
<path fill-rule="evenodd" clip-rule="evenodd" d="M14.5113 2.4825C15.2561 2.16396 16.0544 2 16.8607 2C17.6669 2 18.4652 2.16396 19.2101 2.4825C19.9548 2.801 20.6314 3.26781 21.2013 3.85626C21.7716 4.44455 22.2239 5.14305 22.5325 5.91183C22.8412 6.68061 23 7.50463 23 8.33679C23 9.16896 22.8412 9.99298 22.5325 10.7618C22.2239 11.5305 21.7716 12.229 21.2013 12.8173L12.5205 21.7773C12.2329 22.0742 11.7666 22.0742 11.479 21.7773L2.79801 12.8172C1.64677 11.6289 1 10.0173 1 8.33679C1 6.65632 1.64677 5.04467 2.79801 3.85639C3.94926 2.66811 5.51069 2.00054 7.13881 2.00054C8.76692 2.00054 10.3283 2.66811 11.4796 3.85639L11.9997 4.39326L12.5198 3.85651C12.5198 3.85647 12.5197 3.85656 12.5198 3.85651C13.0897 3.268 13.7665 2.80103 14.5113 2.4825ZM20.1598 4.93134C19.7266 4.48402 19.2123 4.12918 18.6462 3.88709C18.0801 3.64499 17.4734 3.52039 16.8607 3.52039C16.2479 3.52039 15.6412 3.64499 15.0751 3.88709C14.5091 4.12918 13.9947 4.48402 13.5616 4.93134L12.5205 6.00587C12.2329 6.30274 11.7666 6.30274 11.479 6.00587L10.438 4.93146C9.56302 4.02831 8.37625 3.52093 7.13881 3.52093C5.90136 3.52093 4.7146 4.02831 3.83959 4.93146C2.96458 5.83461 2.47301 7.05955 2.47301 8.33679C2.47301 9.61404 2.96458 10.839 3.83959 11.7421L11.9997 20.1647L20.1599 11.7421C20.5933 11.295 20.9372 10.764 21.1717 10.1798C21.4063 9.59549 21.527 8.96924 21.527 8.33679C21.527 7.70435 21.4063 7.0781 21.1717 6.49382C20.9372 5.90954 20.5931 5.37844 20.1598 4.93134Z" fill="#7A7E80"/>
</svg>
