<svg width="24" height="24" viewBox="0 0 24 24" fill="none" xmlns="http://www.w3.org/2000/svg">
<path fill-rule="evenodd" clip-rule="evenodd" d="M12.4723 1.16167C12.1945 0.946121 11.8055 0.946121 11.5277 1.16167L2.29697 8.32446C2.10959 8.46985 2 8.69342 2 8.93024V20.1861C2 20.9324 2.29716 21.6481 2.82611 22.1758C3.35506 22.7035 4.07247 23 4.82051 23H19.1795C19.9275 23 20.6449 22.7035 21.1739 22.1758C21.7028 21.6481 22 20.9324 22 20.1861V8.93024C22 8.69342 21.8904 8.46985 21.703 8.32446L12.4723 1.16167ZM3.53846 20.1861V9.30558L12 2.73969L20.4615 9.30558V20.1861C20.4615 20.5253 20.3265 20.8506 20.086 21.0905C19.8456 21.3304 19.5195 21.4651 19.1795 21.4651H4.82051C4.48049 21.4651 4.1544 21.3304 3.91397 21.0905C3.67353 20.8506 3.53846 20.5253 3.53846 20.1861ZM16.8515 10.9952L12.2361 7.08819C12.0972 6.97061 11.9028 6.97061 11.7639 7.08819L7.14848 10.9952C7.0548 11.0745 7 11.1964 7 11.3256V17.4651C7 17.8722 7.14858 18.2626 7.41305 18.5504C7.67753 18.8383 8.03623 19 8.41026 19H15.5897C15.9638 19 16.3225 18.8383 16.5869 18.5504C16.8514 18.2626 17 17.8722 17 17.4651V11.3256C17 11.1964 16.9452 11.0745 16.8515 10.9952Z" fill="#75B3EB"/>
</svg>
