<svg width="24" height="24" viewBox="0 0 24 24" fill="none" xmlns="http://www.w3.org/2000/svg">
<path fill-rule="evenodd" clip-rule="evenodd" d="M11.5277 1.16166C11.8055 0.946113 12.1945 0.946113 12.4723 1.16166L21.703 8.32445C21.8904 8.46985 22 8.69341 22 8.93023V20.186C22 20.9324 21.7028 21.6481 21.1739 22.1758C20.6449 22.7035 19.9275 23 19.1795 23H4.82051C4.07247 23 3.35506 22.7035 2.82611 22.1758C2.29716 21.6481 2 20.9324 2 20.186V8.93023C2 8.69341 2.10959 8.46985 2.29697 8.32445L11.5277 1.16166ZM3.53846 9.30558V20.186C3.53846 20.5253 3.67353 20.8506 3.91397 21.0905C4.1544 21.3304 4.48049 21.4651 4.82051 21.4651H19.1795C19.5195 21.4651 19.8456 21.3304 20.086 21.0905C20.3265 20.8506 20.4615 20.5253 20.4615 20.186V9.30558L12 2.73968L3.53846 9.30558Z" fill="#7A7E80"/>
</svg>
