<svg width="24" height="24" viewBox="0 0 24 24" fill="none" xmlns="http://www.w3.org/2000/svg">
<path fill-rule="evenodd" clip-rule="evenodd" d="M1 12.0232V20.8231C1 22.0386 1.9845 23 3.2 23H5.39998V9.80012H3.2C1.9845 9.80012 1 10.8077 1 12.0232ZM22.9218 13.4906L21.01 20.679C20.6954 22.0441 19.4799 23 18.0785 23H7.59998V9.82321L9.49086 3.00876C9.71416 1.56008 11.219 0.587678 12.7435 1.17287C13.6554 1.52377 14.1999 2.47304 14.1999 3.45093V8.72322C14.1999 9.33042 14.6927 9.80012 15.2999 9.80012H19.9903C21.9252 9.80012 23.3563 11.6063 22.9218 13.4906Z" fill="#75B3EB"/>
</svg>
