<svg width="20" height="22" viewBox="0 0 20 22" fill="none" xmlns="http://www.w3.org/2000/svg">
<path fill-rule="evenodd" clip-rule="evenodd" d="M10 1.69231C7.94866 1.69231 6.28571 3.33393 6.28571 5.35897C6.28571 7.38402 7.94866 9.02564 10 9.02564C12.0513 9.02564 13.7143 7.38402 13.7143 5.35897C13.7143 3.33393 12.0513 1.69231 10 1.69231ZM4.57143 5.35897C4.57143 2.39929 7.00188 0 10 0C12.9981 0 15.4286 2.39929 15.4286 5.35897C15.4286 8.31866 12.9981 10.7179 10 10.7179C7.00188 10.7179 4.57143 8.31866 4.57143 5.35897ZM1.58999 15.1081C2.60805 14.1031 3.98882 13.5385 5.42857 13.5385H14.5714C16.0112 13.5385 17.392 14.1031 18.41 15.1081C19.4281 16.1131 20 17.4761 20 18.8974V21.1538C20 21.6212 19.6162 22 19.1429 22H0.857143C0.383756 22 0 21.6212 0 21.1538V18.8974C0 17.4761 0.571937 16.1131 1.58999 15.1081ZM5.42857 15.2308C4.44348 15.2308 3.49874 15.6171 2.80217 16.3047C2.10561 16.9923 1.71429 17.925 1.71429 18.8974V20.3077H18.2857V18.8974C18.2857 17.925 17.8944 16.9923 17.1978 16.3047C16.5013 15.6171 15.5565 15.2308 14.5714 15.2308H5.42857Z" fill="#7A7E80"/>
</svg>
