<svg width="24" height="24" viewBox="0 0 24 24" fill="none" xmlns="http://www.w3.org/2000/svg">
<path fill-rule="evenodd" clip-rule="evenodd" d="M6.57143 6.35897C6.57143 3.39929 9.00188 1 12 1C14.9981 1 17.4286 3.39929 17.4286 6.35897C17.4286 9.31866 14.9981 11.7179 12 11.7179C9.00188 11.7179 6.57143 9.31866 6.57143 6.35897ZM3.58999 16.1081C4.60805 15.1031 5.98882 14.5385 7.42857 14.5385H16.5714C18.0112 14.5385 19.392 15.1031 20.41 16.1081C21.4281 17.1131 22 18.4761 22 19.8974V22.1538C22 22.6212 21.6162 23 21.1429 23H2.85714C2.38376 23 2 22.6212 2 22.1538V19.8974C2 18.4761 2.57194 17.1131 3.58999 16.1081ZM7.42857 16.2308C6.44348 16.2308 5.49874 16.6171 4.80217 17.3047C4.10561 17.9923 3.71429 18.925 3.71429 19.8974V21.3077H20.2857V19.8974C20.2857 18.925 19.8944 17.9923 19.1978 17.3047C18.5013 16.6171 17.5565 16.2308 16.5714 16.2308H7.42857Z" fill="#75B3EB"/>
</svg>
