<svg width="22" height="22" viewBox="0 0 22 22" fill="none" xmlns="http://www.w3.org/2000/svg">
<path fill-rule="evenodd" clip-rule="evenodd" d="M8.96266 3.11667C8.96266 1.41874 10.3498 0 12.01 0C12.8375 0 13.628 0.352798 14.2107 0.88757C14.7945 1.42341 15.2365 2.20726 15.2365 3.11667V8.25H19.0008C19.8058 8.25 20.6256 8.51303 21.2178 9.08408C21.8383 9.68243 22.1321 10.5504 21.9434 11.5344L20.6013 19.4047C20.3487 20.9433 19.0805 22 17.6564 22H11.8307C10.3667 22 8.61889 21.5987 7.17013 20.7457V21.0833C7.17013 21.5896 6.76886 22 6.27386 22H0.896266C0.401272 22 0 21.5896 0 21.0833V10.0833C0 9.57707 0.401272 9.16667 0.896266 9.16667H5.70925L7.89396 6.58847C8.58615 5.55031 8.96266 4.36978 8.96266 3.11667ZM5.3776 11H1.79253V20.1667H5.3776V11ZM7.17013 18.4995V10.2419L9.28145 7.75035C9.3027 7.72528 9.3226 7.69905 9.34106 7.67178C10.2451 6.33618 10.7552 4.78086 10.7552 3.11667C10.7552 2.43126 11.3398 1.83333 12.01 1.83333C12.3476 1.83333 12.7222 1.9847 13.0134 2.25201C13.3035 2.51825 13.444 2.83441 13.444 3.11667V9.16667C13.444 9.67293 13.8453 10.0833 14.3403 10.0833H19.0008C19.4507 10.0833 19.796 10.2328 19.9881 10.418C20.1493 10.5735 20.2589 10.8009 20.1834 11.1869C20.1828 11.1902 20.1821 11.1934 20.1815 11.1967C20.1808 11.2008 20.18 11.205 20.1793 11.2092L18.8349 19.0925L18.8338 19.0993C18.7264 19.7585 18.203 20.1667 17.6564 20.1667H11.8307C10.2297 20.1667 8.33181 19.5737 7.17013 18.4995Z" fill="#2B3A42"/>
</svg>
